<svg id="Layer_1" data-name="Layer 1" xmlns="http://www.w3.org/2000/svg" viewBox="0 0 500 500"><defs><style>.cls-1{fill:#e6649f;}.cls-2{fill:#e3619b;}.cls-3{fill:#fd7bb5;}.cls-4{fill:#e967a2;}</style></defs><rect class="cls-1" width="500" height="500"/><polygon class="cls-2" points="218.48 206.74 0 206.74 0 112.21 13.69 88.5 64.79 0 99.11 0 150.21 88.5 155.94 98.43 169.85 122.52 172.5 127.11 179.93 139.97 218.48 206.74"/><polygon class="cls-3" points="463.67 317.76 481.83 349.23 500 380.69 463.67 380.69 427.33 380.69 445.5 349.23 463.67 317.76"/><polygon class="cls-2" points="405.74 221.8 132.68 221.8 141.38 206.74 179.93 139.97 187.36 127.11 200.95 103.57 202.11 101.56 226.03 60.13 260.75 0 277.67 0 322.48 77.6 337.47 103.57 405.74 221.8"/><polygon class="cls-2" points="500 463.81 500 500 281.56 500 304.31 460.6 305.78 458.05 332.96 410.97 357.84 367.87 358.12 367.39 368.6 349.23 379.69 330.02 384.91 320.98 388.21 315.26 396.17 301.48 401.22 292.73 414.23 315.26 439.67 359.32 452.01 380.69 469.49 410.97 500 463.81"/><polygon class="cls-2" points="297.7 130.92 365.96 249.16 434.22 367.39 297.7 367.39 161.17 367.39 229.43 249.16 297.7 130.92"/><polygon class="cls-2" points="500 229.87 500 236.47 230.76 236.47 239.23 221.8 255.38 193.83 299.02 118.23 322.48 77.6 367.28 0 435.54 118.23 500 229.87"/><polygon class="cls-4" points="209.05 500 0 500 0 317.17 40.34 247.3 51.75 227.54 63.16 247.3 77.12 271.49 80.48 277.3 82.62 281.01 112.42 332.63 139.77 380.01 140.17 380.69 141.57 383.11 166.64 426.54 185.16 458.61 186.3 460.6 209.05 500"/><polygon class="cls-2" points="330 500 74.08 500 133.78 396.6 141.57 383.11 142.97 380.69 200.52 281.01 202.04 278.37 203.56 281.01 207.3 287.48 207.62 288.03 245.63 353.87 253.44 367.39 261.11 380.69 270.3 396.6 305.78 458.05 307.25 460.6 330 500"/><polygon class="cls-4" points="104.48 224.11 135.81 278.37 167.14 332.63 104.48 332.63 41.82 332.63 73.15 278.37 104.48 224.11"/><polygon class="cls-4" points="338.57 240.7 369.89 294.96 401.22 349.23 338.57 349.23 275.91 349.23 307.24 294.96 338.57 240.7"/><polygon class="cls-4" points="120.97 247.3 0 247.3 0 239.77 19.07 206.74 26.98 193.04 58.31 138.78 89.64 193.04 97.55 206.74 109.39 227.24 120.97 247.3"/><polygon class="cls-1" points="297.7 263.7 354.54 362.15 411.38 460.6 297.7 460.6 184.01 460.6 240.85 362.15 297.7 263.7"/><polygon class="cls-1" points="192.03 84.11 248.87 182.56 305.71 281.01 192.03 281.01 78.34 281.01 135.19 182.56 192.03 84.11"/><polygon class="cls-3" points="427.33 206.74 458.66 261 489.99 315.26 427.33 315.26 364.67 315.26 396 261 427.33 206.74"/><polygon class="cls-3" points="65.8 372.28 77.79 393.04 89.78 413.81 65.8 413.81 41.82 413.81 53.81 393.04 65.8 372.28"/><polygon class="cls-3" points="202.04 272.17 233.37 326.43 264.7 380.69 202.04 380.69 139.38 380.69 170.71 326.43 202.04 272.17"/><polygon class="cls-3" points="202.04 18.59 233.37 72.85 264.7 127.11 202.04 127.11 139.38 127.11 170.71 72.85 202.04 18.59"/><polygon class="cls-3" points="380.84 342.34 412.17 396.6 443.5 450.87 380.84 450.87 318.18 450.87 349.51 396.6 380.84 342.34"/><polygon class="cls-4" points="27.98 389.95 0 389.95 0 341.49 27.98 389.95"/><polygon class="cls-4" points="286 160 345.87 263.7 405.74 367.39 286 367.39 166.27 367.39 226.14 263.7 286 160"/></svg>